<svg width="530" height="399" viewBox="0 0 530 399" fill="none" xmlns="http://www.w3.org/2000/svg">
<path d="M272.34 368.654L470.759 261.28C472.189 260.537 473.393 259.424 474.245 258.058C475.097 256.691 475.566 255.121 475.603 253.511C475.639 251.901 475.242 250.312 474.453 248.908C473.664 247.504 472.512 246.338 471.117 245.531L278.767 130.679C277.295 129.806 275.62 129.335 273.908 129.312C272.197 129.289 270.51 129.714 269.015 130.547L59.1215 247.953C57.6934 248.723 56.5004 249.864 55.6689 251.256C54.8375 252.649 54.3985 254.239 54.3985 255.86C54.3985 257.481 54.8375 259.072 55.6689 260.464C56.5004 261.857 57.6934 262.998 59.1215 263.768L246.278 368.469C250.257 370.684 254.73 371.863 259.285 371.895C263.841 371.928 268.331 370.813 272.34 368.654V368.654Z" fill="#00275E"/>
<path d="M238.752 209.175C238.752 209.175 198.617 230.575 189.117 281.635C189.117 281.635 228.205 289.907 280.542 246.669" fill="#EB773A"/>
<path d="M238.248 215.686C238.248 215.686 221.129 231.025 216.306 241.851C211.483 252.677 205.19 268.519 205.19 268.519C205.19 268.519 235.333 271.087 263.675 253.763C292.017 236.438 265 204.04 238.248 215.686Z" fill="#FFAE46"/>
<path d="M255.261 210.3C254.228 212.033 236.592 221.959 233.293 236.279L239.043 231.925C239.043 231.925 229.265 245.61 225.117 253.485C225.117 253.485 248.967 243.995 248.225 244.564L241.481 249.673C241.481 249.673 259.621 249.289 271.956 238.278C284.292 227.267 267.332 208.063 267.332 208.063L255.261 210.3Z" fill="#FAD374"/>
<path d="M308.487 210.167C308.487 210.167 305.373 230.35 298.708 235.313C292.043 240.276 270.406 256.727 270.406 256.727L266.815 251.989C266.815 251.989 281.735 225.427 284.372 213.701C287.008 201.975 308.487 210.167 308.487 210.167Z" fill="#68E1FD"/>
<path opacity="0.61" d="M308.487 210.167C308.487 210.167 305.373 230.35 298.708 235.313C292.043 240.276 270.406 256.727 270.406 256.727L266.815 251.989C266.815 251.989 281.735 225.427 284.372 213.701C287.008 201.975 308.487 210.167 308.487 210.167Z" fill="#363636"/>
<path d="M286.942 181.765C286.942 181.765 266.643 179.304 259.992 184.412C253.34 189.521 231.69 205.826 231.69 205.826L235.28 210.564C235.28 210.564 264.921 203.404 276.938 204.053C288.956 204.701 286.942 181.765 286.942 181.765Z" fill="#68E1FD"/>
<path opacity="0.61" d="M286.942 181.765C286.942 181.765 266.643 179.304 259.992 184.412C253.34 189.521 231.69 205.826 231.69 205.826L235.28 210.564C235.28 210.564 264.921 203.404 276.938 204.053C288.956 204.701 286.942 181.765 286.942 181.765Z" fill="#363636"/>
<path d="M384.396 147.884C389.762 139.511 394.095 130.522 397.301 121.11C397.301 121.11 385.509 121.243 367.886 126.484C369.291 135.444 376.459 142.59 384.396 147.884Z" fill="#68E1FD"/>
<path d="M337.122 184.259C342.722 180.022 343.352 171.434 338.531 165.078C333.71 158.722 325.262 157.004 319.663 161.242C314.063 165.479 313.432 174.067 318.254 180.423C323.075 186.78 331.523 188.497 337.122 184.259Z" fill="#68E1FD"/>
<path d="M438.482 89.4261C438.482 89.4261 327.447 117.007 271.029 198.666C271.029 198.666 257.779 212.788 264.179 220.636C270.578 228.484 291.911 222.237 291.911 222.237C291.911 222.237 362.016 202.359 438.482 89.4261Z" fill="#68E1FD"/>
<path d="M271.029 198.666C271.029 198.666 257.037 196.972 252.479 200.453C247.921 203.934 232.975 215.21 232.975 215.21L235.452 218.479C235.452 218.479 255.884 213.542 264.152 213.992C272.42 214.442 271.029 198.666 271.029 198.666Z" fill="#68E1FD"/>
<path d="M287.883 220.887C287.883 220.887 285.736 234.797 281.138 238.265C276.541 241.732 261.635 253.022 261.635 253.022L259.17 249.792C259.17 249.792 269.452 231.489 271.267 223.402C273.083 215.316 287.883 220.887 287.883 220.887Z" fill="#68E1FD"/>
<path opacity="0.29" d="M271.029 198.666C271.029 198.666 257.037 196.972 252.479 200.453C247.921 203.934 232.975 215.21 232.975 215.21L235.452 218.479C235.452 218.479 255.884 213.542 264.152 213.992C272.42 214.442 271.029 198.666 271.029 198.666Z" fill="#363636"/>
<path opacity="0.29" d="M287.883 220.887C287.883 220.887 285.736 234.797 281.138 238.265C276.541 241.732 261.635 253.022 261.635 253.022L259.17 249.792C259.17 249.792 269.452 231.489 271.267 223.402C273.083 215.316 287.883 220.887 287.883 220.887Z" fill="#363636"/>
<path d="M384.542 109.318C384.542 109.318 384.157 128.072 404.032 135.02L392.505 148.096C392.505 148.096 367.542 134.08 371.411 115.671L384.542 109.318Z" fill="#68E1FD"/>
<path d="M313.243 152.794C313.243 152.794 313.468 184.558 343.122 193.597L321.1 208.632C321.1 208.632 289.3 197.607 295.197 169.351L313.243 152.794Z" fill="#68E1FD"/>
<path d="M366.842 148.215C368.814 146.723 369.201 143.917 367.708 141.948C366.214 139.979 363.405 139.592 361.433 141.084C359.462 142.576 359.075 145.382 360.568 147.351C362.062 149.32 364.871 149.707 366.842 148.215Z" fill="#68E1FD"/>
<path d="M350.579 171.646C355.742 167.778 356.789 160.461 352.916 155.304C349.044 150.146 341.719 149.101 336.555 152.969C331.392 156.837 330.345 164.154 334.218 169.311C338.091 174.469 345.416 175.514 350.579 171.646Z" fill="#68E1FD"/>
<path opacity="0.61" d="M384.542 109.318C384.542 109.318 384.157 128.072 404.032 135.02L392.505 148.096C392.505 148.096 367.542 134.08 371.411 115.671L384.542 109.318Z" fill="#606060"/>
<path opacity="0.61" d="M313.243 152.794C313.243 152.794 313.468 184.558 343.122 193.597L321.1 208.632C321.1 208.632 289.3 197.607 295.197 169.351L313.243 152.794Z" fill="#606060"/>
<path opacity="0.61" d="M366.842 148.215C368.814 146.723 369.201 143.917 367.708 141.948C366.214 139.979 363.405 139.592 361.433 141.084C359.462 142.576 359.075 145.382 360.568 147.351C362.062 149.32 364.871 149.707 366.842 148.215Z" fill="#606060"/>
<path opacity="0.61" d="M350.579 171.646C355.742 167.778 356.789 160.461 352.916 155.304C349.044 150.146 341.719 149.101 336.555 152.969C331.392 156.837 330.345 164.154 334.218 169.311C338.091 174.469 345.416 175.514 350.579 171.646Z" fill="#606060"/>
<path d="M405.847 229.847C405.496 229.847 405.159 229.987 404.911 230.235C404.662 230.483 404.523 230.82 404.523 231.171C404.523 231.522 404.662 231.859 404.911 232.107C405.159 232.355 405.496 232.494 405.847 232.494C406.199 232.494 406.536 232.355 406.784 232.107C407.033 231.859 407.172 231.522 407.172 231.171C407.172 230.82 407.033 230.483 406.784 230.235C406.536 229.987 406.199 229.847 405.847 229.847Z" fill="white"/>
<path d="M338.723 282.562V283.409C338.723 283.76 338.863 284.096 339.111 284.344C339.36 284.593 339.697 284.732 340.048 284.732C340.399 284.732 340.736 284.593 340.985 284.344C341.233 284.096 341.373 283.76 341.373 283.409V282.562C341.373 282.211 341.233 281.874 340.985 281.626C340.736 281.378 340.399 281.238 340.048 281.238C339.697 281.238 339.36 281.378 339.111 281.626C338.863 281.874 338.723 282.211 338.723 282.562Z" fill="white"/>
<path d="M245.92 303.631V304.478C245.92 304.829 246.06 305.166 246.308 305.414C246.557 305.663 246.894 305.802 247.245 305.802C247.596 305.802 247.933 305.663 248.182 305.414C248.43 305.166 248.57 304.829 248.57 304.478V303.631C248.57 303.28 248.43 302.944 248.182 302.696C247.933 302.447 247.596 302.308 247.245 302.308C246.894 302.308 246.557 302.447 246.308 302.696C246.06 302.944 245.92 303.28 245.92 303.631Z" fill="white"/>
<path d="M332.456 239.112C332.104 239.112 331.767 239.251 331.519 239.499C331.27 239.748 331.131 240.084 331.131 240.435C331.131 240.786 331.27 241.123 331.519 241.371C331.767 241.619 332.104 241.759 332.456 241.759C332.807 241.759 333.144 241.619 333.393 241.371C333.641 241.123 333.781 240.786 333.781 240.435C333.781 240.084 333.641 239.748 333.393 239.499C333.144 239.251 332.807 239.112 332.456 239.112Z" fill="white"/>
<path d="M173.853 236.557C173.502 236.557 173.165 236.697 172.916 236.945C172.668 237.193 172.528 237.53 172.528 237.881C172.528 238.232 172.668 238.569 172.916 238.817C173.165 239.065 173.502 239.204 173.853 239.204C174.205 239.204 174.542 239.065 174.79 238.817C175.039 238.569 175.178 238.232 175.178 237.881C175.178 237.53 175.039 237.193 174.79 236.945C174.542 236.697 174.205 236.557 173.853 236.557Z" fill="white"/>
<path d="M114.308 240.435V241.282C114.308 241.633 114.447 241.97 114.696 242.218C114.944 242.466 115.281 242.606 115.633 242.606C115.984 242.606 116.321 242.466 116.57 242.218C116.818 241.97 116.958 241.633 116.958 241.282V240.435C116.958 240.084 116.818 239.748 116.57 239.499C116.321 239.251 115.984 239.112 115.633 239.112C115.281 239.112 114.944 239.251 114.696 239.499C114.447 239.748 114.308 240.084 114.308 240.435Z" fill="white"/>
<path d="M142.636 282.085C142.285 282.085 141.948 282.225 141.699 282.473C141.451 282.721 141.311 283.058 141.311 283.409C141.311 283.76 141.451 284.096 141.699 284.345C141.948 284.593 142.285 284.732 142.636 284.732C142.988 284.732 143.325 284.593 143.573 284.345C143.822 284.096 143.961 283.76 143.961 283.409C143.961 283.058 143.822 282.721 143.573 282.473C143.325 282.225 142.988 282.085 142.636 282.085Z" fill="white"/>
<path d="M186.507 207.084C186.156 207.084 185.819 207.223 185.57 207.471C185.322 207.719 185.182 208.056 185.182 208.407C185.182 208.758 185.322 209.095 185.57 209.343C185.819 209.591 186.156 209.731 186.507 209.731C186.858 209.731 187.195 209.591 187.444 209.343C187.692 209.095 187.832 208.758 187.832 208.407C187.832 208.056 187.692 207.719 187.444 207.471C187.195 207.223 186.858 207.084 186.507 207.084Z" fill="white"/>
<path d="M251.458 164.957C251.107 164.957 250.77 165.097 250.522 165.345C250.273 165.593 250.133 165.93 250.133 166.281C250.133 166.632 250.273 166.968 250.522 167.216C250.77 167.465 251.107 167.604 251.458 167.604C251.81 167.604 252.147 167.465 252.395 167.216C252.644 166.968 252.783 166.632 252.783 166.281C252.783 165.93 252.644 165.593 252.395 165.345C252.147 165.097 251.81 164.957 251.458 164.957Z" fill="white"/>
<path d="M291.116 330.114C290.764 330.114 290.427 330.254 290.179 330.502C289.93 330.75 289.791 331.087 289.791 331.438C289.791 331.789 289.93 332.125 290.179 332.374C290.427 332.622 290.764 332.761 291.116 332.761C291.467 332.761 291.804 332.622 292.053 332.374C292.301 332.125 292.441 331.789 292.441 331.438C292.441 331.087 292.301 330.75 292.053 330.502C291.804 330.254 291.467 330.114 291.116 330.114Z" fill="white"/>
<path d="M378.844 255.721C370.324 255.721 370.298 268.956 378.844 268.956C387.39 268.956 387.39 255.721 378.844 255.721Z" fill="#FFAE46"/>
<path d="M140.954 248.138C132.434 248.138 132.407 261.373 140.954 261.373C149.5 261.373 149.487 248.138 140.954 248.138Z" fill="#FFAE46"/>
<path d="M267.955 335.183C266.712 333.943 265.028 333.246 263.271 333.246C261.514 333.246 259.829 333.943 258.587 335.183C257.369 336.442 256.677 338.118 256.652 339.868V340.715C256.672 342.467 257.364 344.144 258.587 345.4C259.829 346.641 261.514 347.338 263.271 347.338C265.028 347.338 266.712 346.641 267.955 345.4C269.173 344.141 269.864 342.466 269.889 340.715V339.868C269.87 338.117 269.177 336.439 267.955 335.183V335.183Z" fill="#00AEE1"/>
<path d="M146.744 158.128C162.697 158.128 175.629 145.211 175.629 129.276C175.629 113.342 162.697 100.424 146.744 100.424C130.791 100.424 117.859 113.342 117.859 129.276C117.859 145.211 130.791 158.128 146.744 158.128Z" fill="#68E1FD"/>
<path d="M170.236 113.408C173.284 112.568 176.381 111.923 179.511 111.475C181.083 111.237 182.666 111.087 184.254 111.025C185.903 110.933 187.557 111.031 189.183 111.317C190.124 111.476 191.024 111.817 191.833 112.322C192.321 112.643 192.737 113.062 193.052 113.553C193.384 114.088 193.576 114.698 193.609 115.327C193.621 116.366 193.38 117.392 192.907 118.318C192.532 119.105 192.088 119.858 191.582 120.568C189.573 123.145 187.249 125.461 184.665 127.463C179.705 131.407 174.437 134.947 168.911 138.051C163.444 141.208 157.813 144.075 152.044 146.64C146.273 149.248 140.348 151.502 134.302 153.39C131.256 154.361 128.16 155.17 125.027 155.812C121.817 156.516 118.556 156.963 115.275 157.149C113.594 157.235 111.909 157.168 110.24 156.95C108.455 156.748 106.717 156.247 105.099 155.468C104.21 155.041 103.396 154.473 102.687 153.787C101.893 153.002 101.321 152.02 101.031 150.942C100.775 149.912 100.775 148.835 101.031 147.805C101.249 146.909 101.583 146.046 102.025 145.237C103.771 142.421 106.016 139.945 108.65 137.932C111.082 135.92 113.685 134.122 116.428 132.558C114.155 134.655 111.988 136.864 109.935 139.176C107.882 141.363 106.179 143.854 104.887 146.561C104.367 147.593 104.244 148.78 104.542 149.896C104.713 150.31 104.987 150.675 105.337 150.955C105.791 151.307 106.29 151.597 106.821 151.815C109.457 152.688 112.256 152.955 115.01 152.596C121.011 151.899 126.917 150.541 132.619 148.546C138.449 146.667 144.133 144.311 149.844 141.929C161.144 137.093 171.96 131.199 182.148 124.326C184.595 122.638 186.855 120.694 188.892 118.529C189.344 118.023 189.752 117.478 190.111 116.902C190.393 116.459 190.582 115.964 190.667 115.446C190.679 115.269 190.644 115.093 190.565 114.935C190.486 114.776 190.366 114.642 190.217 114.546C189.716 114.182 189.156 113.909 188.561 113.738C185.63 113.035 182.614 112.749 179.604 112.891C176.463 112.905 173.35 113.09 170.236 113.408Z" fill="#8CC63F"/>
</svg>
