<svg width="581" height="544" viewBox="0 0 581 544" fill="none" xmlns="http://www.w3.org/2000/svg">
<path d="M143.332 77.1743C131.922 23.5955 34.0093 124.412 6.93525 77.1743C-9.76848 48.0301 6.13159 23.9784 28.8493 0H581V531.233C566.932 540.692 554.068 548.284 537.033 541.249C499.402 525.709 587.943 458.646 554.02 435.778C522.472 414.509 502.37 490.214 466.587 477.966C415.715 460.554 530.739 360.667 482.075 337.509C441.595 318.246 422.427 407.596 380.652 391.531C325.694 370.396 456.218 257.542 400.637 238.211C355.414 222.484 340.86 334.126 299.713 309.212C257.54 283.675 354.453 215.446 318.199 181.617C281.22 147.11 222.645 260.614 195.292 217.632C174.386 184.779 242.663 150.078 218.275 119.877C190.181 85.0875 127.91 196.049 110.856 154.349C98.4769 124.077 150.164 109.258 143.332 77.1743Z" fill="white"/>
</svg>
